<?xml version="1.0" standalone="no"?>
<!DOCTYPE svg PUBLIC "-//W3C//DTD SVG 20010904//EN"
 "http://www.w3.org/TR/2001/REC-SVG-20010904/DTD/svg10.dtd">
<svg version="1.0" xmlns="http://www.w3.org/2000/svg"
 width="512.000000pt" height="512.000000pt" viewBox="0 0 512.000000 512.000000"
 preserveAspectRatio="xMidYMid meet">
<metadata>
Created by potrace 1.11, written by Peter Selinger 2001-2013
</metadata>
<g transform="translate(0.000000,512.000000) scale(0.100000,-0.100000)"
fill="#000000" stroke="none">
<path d="M395 5106 c-193 -48 -343 -201 -384 -394 -16 -76 -16 -4228 0 -4304
42 -197 200 -355 397 -397 76 -16 4228 -16 4304 0 197 42 355 200 397 397 16
76 16 4228 0 4304 -42 197 -200 355 -397 397 -80 17 -4248 14 -4317 -3z m2286
-886 c514 -50 847 -213 1085 -530 213 -284 319 -722 285 -1183 -21 -295 -86
-540 -201 -767 -83 -162 -165 -275 -295 -405 -221 -222 -498 -364 -820 -420
-142 -25 -354 -29 -618 -11 -156 10 -377 16 -643 16 l-404 0 0 109 0 109 33 6
c17 3 98 13 180 22 l147 17 0 1368 c0 1084 -3 1368 -12 1372 -7 2 -84 15 -170
27 l-158 24 0 106 0 107 418 7 c229 4 498 13 597 20 229 17 444 19 576 6z"/>
<path d="M2135 3984 c-16 -2 -76 -9 -132 -15 l-103 -12 0 -1392 0 -1393 23 -6
c77 -19 240 -28 454 -24 215 5 247 7 334 31 366 97 622 361 753 775 77 246
103 620 65 942 -61 515 -292 868 -663 1011 -161 62 -269 80 -496 84 -113 2
-218 1 -235 -1z"/>
</g>
</svg>
